<svg width="82" height="56" viewBox="0 0 82 56" fill="none" xmlns="http://www.w3.org/2000/svg">
<path d="M46.3332 17.2001V22.8001C46.3332 27.4667 44.4665 29.3334 39.7998 29.3334H34.1998C29.5332 29.3334 27.6665 27.4667 27.6665 22.8001V17.2001C27.6665 12.5334 29.5332 10.6667 34.1998 10.6667H39.7998C44.4665 10.6667 46.3332 12.5334 46.3332 17.2001Z" stroke="#120B48" stroke-width="2.5" stroke-linecap="round" stroke-linejoin="round"/>
<path d="M54.3332 9.20008V14.8001C54.3332 19.4667 52.4665 21.3334 47.7998 21.3334H46.3332V17.2001C46.3332 12.5334 44.4665 10.6667 39.7998 10.6667H35.6665V9.20008C35.6665 4.53341 37.5332 2.66675 42.1998 2.66675H47.7998C52.4665 2.66675 54.3332 4.53341 54.3332 9.20008Z" stroke="#120B48" stroke-width="2.5" stroke-linecap="round" stroke-linejoin="round"/>
<path d="M9.114 50.452C8.93667 51.0493 8.65667 51.5487 8.274 51.95C7.89133 52.3513 7.43867 52.65 6.916 52.846C6.39333 53.042 5.81933 53.14 5.194 53.14C4.27933 53.14 3.486 52.9487 2.814 52.566C2.15133 52.1833 1.638 51.6373 1.274 50.928C0.919333 50.2187 0.742 49.3693 0.742 48.38C0.742 47.3907 0.919333 46.5413 1.274 45.832C1.638 45.1227 2.15133 44.5767 2.814 44.194C3.486 43.8113 4.27 43.62 5.166 43.62C5.80067 43.62 6.37467 43.7087 6.888 43.886C7.40133 44.054 7.83533 44.3153 8.19 44.67C8.554 45.0247 8.82 45.4727 8.988 46.014L7.238 46.756C7.07933 46.196 6.83667 45.7993 6.51 45.566C6.18333 45.3233 5.76333 45.202 5.25 45.202C4.746 45.202 4.30267 45.3233 3.92 45.566C3.54667 45.8087 3.25733 46.168 3.052 46.644C2.84667 47.1107 2.744 47.6893 2.744 48.38C2.744 49.0613 2.83733 49.64 3.024 50.116C3.22 50.592 3.50467 50.9513 3.878 51.194C4.25133 51.4367 4.70867 51.558 5.25 51.558C5.754 51.558 6.188 51.4227 6.552 51.152C6.92533 50.8813 7.18667 50.4707 7.336 49.92L9.114 50.452ZM13.0006 53.14C12.534 53.14 12.114 53.056 11.7406 52.888C11.3673 52.72 11.0686 52.454 10.8446 52.09C10.63 51.7167 10.5226 51.236 10.5226 50.648V46H12.4406V50.186C12.4406 50.7273 12.5526 51.1053 12.7766 51.32C13.0006 51.5253 13.3226 51.628 13.7426 51.628C13.9386 51.628 14.13 51.5953 14.3166 51.53C14.5033 51.4553 14.6666 51.3433 14.8066 51.194C14.956 51.0447 15.0726 50.8533 15.1566 50.62C15.2406 50.3773 15.2826 50.0927 15.2826 49.766V46H17.2006V53H15.4926L15.4226 51.782C15.1893 52.2487 14.8673 52.594 14.4566 52.818C14.0553 53.0327 13.57 53.14 13.0006 53.14ZM19.2189 53V46H20.8849L21.0109 47.372C21.1976 46.8867 21.4683 46.5133 21.8229 46.252C22.1869 45.9907 22.6396 45.86 23.1809 45.86C23.3396 45.86 23.4843 45.874 23.6149 45.902C23.7456 45.93 23.8529 45.9673 23.9369 46.014L23.7129 47.624C23.6196 47.5867 23.5029 47.5587 23.3629 47.54C23.2323 47.5213 23.0596 47.512 22.8449 47.512C22.5649 47.512 22.2943 47.582 22.0329 47.722C21.7716 47.8527 21.5569 48.058 21.3889 48.338C21.2209 48.6087 21.1369 48.954 21.1369 49.374V53H19.2189ZM25.1252 53V46H26.7912L26.9172 47.372C27.1039 46.8867 27.3745 46.5133 27.7292 46.252C28.0932 45.9907 28.5459 45.86 29.0872 45.86C29.2459 45.86 29.3905 45.874 29.5212 45.902C29.6519 45.93 29.7592 45.9673 29.8432 46.014L29.6192 47.624C29.5259 47.5867 29.4092 47.5587 29.2692 47.54C29.1385 47.5213 28.9659 47.512 28.7512 47.512C28.4712 47.512 28.2005 47.582 27.9392 47.722C27.6779 47.8527 27.4632 48.058 27.2952 48.338C27.1272 48.6087 27.0432 48.954 27.0432 49.374V53H25.1252ZM34.1427 53.14C33.4054 53.14 32.7614 52.9953 32.2107 52.706C31.6694 52.4167 31.2494 52.0013 30.9507 51.46C30.6521 50.9187 30.5027 50.2653 30.5027 49.5C30.5027 48.7347 30.6521 48.0813 30.9507 47.54C31.2494 46.9987 31.6647 46.5833 32.1967 46.294C32.7381 46.0047 33.3541 45.86 34.0447 45.86C34.7541 45.86 35.3561 46.0047 35.8507 46.294C36.3454 46.574 36.7234 46.9613 36.9847 47.456C37.2461 47.9413 37.3767 48.4967 37.3767 49.122C37.3767 49.3087 37.3721 49.486 37.3627 49.654C37.3534 49.822 37.3394 49.9713 37.3207 50.102H31.7347V48.772H36.4807L35.5567 49.108C35.5567 48.52 35.4214 48.0673 35.1507 47.75C34.8894 47.4327 34.5161 47.274 34.0307 47.274C33.6761 47.274 33.3681 47.358 33.1067 47.526C32.8547 47.694 32.6634 47.946 32.5327 48.282C32.4021 48.6087 32.3367 49.024 32.3367 49.528C32.3367 50.0227 32.4067 50.4333 32.5467 50.76C32.6961 51.0773 32.9014 51.3153 33.1627 51.474C33.4334 51.6327 33.7554 51.712 34.1287 51.712C34.5394 51.712 34.8707 51.6327 35.1227 51.474C35.3747 51.3153 35.5707 51.096 35.7107 50.816L37.2367 51.404C37.0874 51.768 36.8587 52.0807 36.5507 52.342C36.2521 52.6033 35.8927 52.804 35.4727 52.944C35.0621 53.0747 34.6187 53.14 34.1427 53.14ZM39.0021 53V46H40.7241L40.8361 48.1L40.5981 47.876C40.7101 47.4187 40.8875 47.0407 41.1301 46.742C41.3728 46.4433 41.6668 46.224 42.0121 46.084C42.3668 45.9347 42.7541 45.86 43.1741 45.86C43.6595 45.86 44.0888 45.9533 44.4621 46.14C44.8448 46.3267 45.1435 46.6113 45.3581 46.994C45.5821 47.3673 45.6941 47.8387 45.6941 48.408V53H43.7761V48.954C43.7761 48.3567 43.6595 47.946 43.4261 47.722C43.1928 47.4887 42.8895 47.372 42.5161 47.372C42.2548 47.372 41.9981 47.4373 41.7461 47.568C41.5035 47.6893 41.3028 47.89 41.1441 48.17C40.9948 48.45 40.9201 48.8233 40.9201 49.29V53H39.0021ZM50.0934 43.858V50.718C50.0934 51.054 50.1774 51.3013 50.3454 51.46C50.5228 51.6093 50.7608 51.684 51.0594 51.684C51.2928 51.684 51.4981 51.6513 51.6754 51.586C51.8528 51.5113 52.0114 51.4133 52.1514 51.292L52.4594 52.566C52.2354 52.7433 51.9554 52.8833 51.6194 52.986C51.2834 53.0887 50.9288 53.14 50.5554 53.14C50.0888 53.14 49.6734 53.07 49.3094 52.93C48.9548 52.79 48.6748 52.566 48.4694 52.258C48.2734 51.95 48.1754 51.5393 48.1754 51.026V44.39L50.0934 43.858ZM52.3334 46V47.428H46.8874V46H52.3334ZM65.1272 43.76V45.314H62.0332V53H60.1012V45.314H56.9932V43.76H65.1272ZM69.2011 48.534C69.2011 48.1327 69.0845 47.82 68.8511 47.596C68.6271 47.372 68.3285 47.26 67.9551 47.26C67.6098 47.26 67.3065 47.3487 67.0451 47.526C66.7838 47.7033 66.5925 47.9973 66.4711 48.408L64.8331 47.904C64.9918 47.288 65.3371 46.7933 65.8691 46.42C66.4105 46.0467 67.1338 45.86 68.0391 45.86C68.6551 45.86 69.1918 45.958 69.6491 46.154C70.1065 46.3407 70.4611 46.6253 70.7131 47.008C70.9745 47.3907 71.1051 47.8713 71.1051 48.45V51.292C71.1051 51.6467 71.2731 51.824 71.6091 51.824C71.7678 51.824 71.9171 51.8007 72.0571 51.754L71.9451 52.944C71.7025 53.0653 71.3991 53.126 71.0351 53.126C70.7085 53.126 70.4145 53.07 70.1531 52.958C69.8918 52.846 69.6865 52.678 69.5371 52.454C69.3878 52.2207 69.3131 51.9313 69.3131 51.586V51.53L69.6491 51.474C69.5931 51.8287 69.4391 52.132 69.1871 52.384C68.9351 52.6267 68.6271 52.8133 68.2631 52.944C67.9085 53.0747 67.5398 53.14 67.1571 53.14C66.6811 53.14 66.2705 53.07 65.9251 52.93C65.5798 52.7807 65.3138 52.566 65.1271 52.286C64.9405 52.006 64.8471 51.6607 64.8471 51.25C64.8471 50.7273 65.0151 50.3027 65.3511 49.976C65.6871 49.64 66.1678 49.4113 66.7931 49.29L69.4251 48.758L69.4111 49.948L67.7311 50.284C67.4138 50.3493 67.1711 50.438 67.0031 50.55C66.8445 50.6527 66.7651 50.8253 66.7651 51.068C66.7651 51.3013 66.8491 51.4787 67.0171 51.6C67.1945 51.7213 67.4045 51.782 67.6471 51.782C67.8431 51.782 68.0345 51.7587 68.2211 51.712C68.4078 51.6653 68.5758 51.5907 68.7251 51.488C68.8745 51.3853 68.9911 51.2453 69.0751 51.068C69.1591 50.8907 69.2011 50.676 69.2011 50.424V48.534ZM77.3662 53.14C76.9369 53.14 76.5449 53.0513 76.1902 52.874C75.8449 52.6873 75.5555 52.4353 75.3222 52.118C75.0982 51.7913 74.9442 51.4273 74.8602 51.026L75.0562 50.774L74.9442 53H73.2502V42.934H75.1682V47.974L74.9862 47.68C75.1355 47.1573 75.4202 46.7233 75.8402 46.378C76.2602 46.0327 76.7875 45.86 77.4222 45.86C77.9729 45.86 78.4722 46.0047 78.9202 46.294C79.3682 46.5833 79.7182 46.9987 79.9702 47.54C80.2315 48.0813 80.3622 48.7393 80.3622 49.514C80.3622 50.27 80.2315 50.9187 79.9702 51.46C79.7182 52.0013 79.3635 52.4167 78.9062 52.706C78.4582 52.9953 77.9449 53.14 77.3662 53.14ZM76.7922 51.67C77.3055 51.67 77.7069 51.488 77.9962 51.124C78.2949 50.7507 78.4442 50.2093 78.4442 49.5C78.4442 48.7907 78.2995 48.254 78.0102 47.89C77.7209 47.5167 77.3195 47.33 76.8062 47.33C76.4702 47.33 76.1809 47.4187 75.9382 47.596C75.6955 47.7733 75.5042 48.0253 75.3642 48.352C75.2335 48.6787 75.1682 49.066 75.1682 49.514C75.1682 49.9713 75.2335 50.3633 75.3642 50.69C75.5042 51.0073 75.6955 51.25 75.9382 51.418C76.1902 51.586 76.4749 51.67 76.7922 51.67Z" fill="#120B48"/>
</svg>
