<svg width="76" height="56" viewBox="0 0 76 56" fill="none" xmlns="http://www.w3.org/2000/svg">
<path d="M30.5865 2.66675H45.3998C50.1465 2.66675 51.3332 3.85341 51.3332 8.58675V17.0267C51.3332 21.7734 50.1465 22.9467 45.4132 22.9467H30.5865C25.8532 22.9601 24.6665 21.7734 24.6665 17.0401V8.58675C24.6665 3.85341 25.8532 2.66675 30.5865 2.66675Z" stroke="#928FAB" stroke-width="1.5" stroke-linecap="round" stroke-linejoin="round"/>
<path d="M38 22.96V29.3333" stroke="#928FAB" stroke-width="1.5" stroke-linecap="round" stroke-linejoin="round"/>
<path d="M24.6665 17.3333H51.3332" stroke="#928FAB" stroke-width="1.5" stroke-linecap="round" stroke-linejoin="round"/>
<path d="M32 29.3333H44" stroke="#928FAB" stroke-width="1.5" stroke-linecap="round" stroke-linejoin="round"/>
<path d="M8.05 45.048H2.87V47.736H6.93V49.024H2.87V53H1.372V43.76H8.05V45.048ZM11.7341 53.14C11.2767 53.14 10.8521 53.056 10.4601 52.888C10.0774 52.72 9.76941 52.4493 9.53608 52.076C9.30274 51.7027 9.18608 51.2173 9.18608 50.62V46H10.6841V50.242C10.6841 50.8767 10.8194 51.3153 11.0901 51.558C11.3607 51.7913 11.7387 51.908 12.2241 51.908C12.4574 51.908 12.6814 51.8707 12.8961 51.796C13.1201 51.712 13.3207 51.586 13.4981 51.418C13.6754 51.2407 13.8107 51.0167 13.9041 50.746C14.0067 50.4753 14.0581 50.158 14.0581 49.794V46H15.5561V53H14.2401L14.1701 51.866C13.9274 52.3047 13.6007 52.6267 13.1901 52.832C12.7794 53.0373 12.2941 53.14 11.7341 53.14ZM19.3524 42.85V51.04C19.3524 51.3853 19.413 51.6233 19.5344 51.754C19.6557 51.8847 19.8564 51.95 20.1364 51.95C20.3044 51.95 20.4444 51.9407 20.5564 51.922C20.6777 51.894 20.827 51.8473 21.0044 51.782L20.8364 52.902C20.6777 52.9767 20.4957 53.0327 20.2904 53.07C20.085 53.1167 19.8797 53.14 19.6744 53.14C19.049 53.14 18.587 52.9813 18.2884 52.664C17.999 52.3373 17.8544 51.838 17.8544 51.166V42.85H19.3524ZM23.7137 42.85V51.04C23.7137 51.3853 23.7744 51.6233 23.8957 51.754C24.017 51.8847 24.2177 51.95 24.4977 51.95C24.6657 51.95 24.8057 51.9407 24.9177 51.922C25.039 51.894 25.1884 51.8473 25.3657 51.782L25.1977 52.902C25.039 52.9767 24.857 53.0327 24.6517 53.07C24.4464 53.1167 24.241 53.14 24.0357 53.14C23.4104 53.14 22.9484 52.9813 22.6497 52.664C22.3604 52.3373 22.2157 51.838 22.2157 51.166V42.85H23.7137ZM33.4216 53.14C32.7216 53.14 32.0823 53.0047 31.5036 52.734C30.9249 52.4633 30.4676 52.0807 30.1316 51.586L31.1676 50.69C31.3729 51.0727 31.6669 51.3807 32.0496 51.614C32.4416 51.838 32.9083 51.95 33.4496 51.95C33.8789 51.95 34.2196 51.8753 34.4716 51.726C34.7236 51.5767 34.8496 51.3667 34.8496 51.096C34.8496 50.9187 34.7889 50.7647 34.6676 50.634C34.5556 50.494 34.3363 50.3867 34.0096 50.312L32.5396 50.004C31.7929 49.8547 31.2609 49.6167 30.9436 49.29C30.6263 48.954 30.4676 48.5293 30.4676 48.016C30.4676 47.6333 30.5796 47.2787 30.8036 46.952C31.0276 46.6253 31.3543 46.364 31.7836 46.168C32.2223 45.9627 32.7449 45.86 33.3516 45.86C34.0516 45.86 34.6489 45.986 35.1436 46.238C35.6383 46.4807 36.0163 46.8307 36.2776 47.288L35.2416 48.156C35.0643 47.7827 34.8029 47.5073 34.4576 47.33C34.1123 47.1433 33.7529 47.05 33.3796 47.05C33.0809 47.05 32.8243 47.0873 32.6096 47.162C32.3949 47.2367 32.2316 47.3393 32.1196 47.47C32.0076 47.6007 31.9516 47.7547 31.9516 47.932C31.9516 48.1187 32.0216 48.282 32.1616 48.422C32.3016 48.562 32.5536 48.6693 32.9176 48.744L34.5136 49.08C35.1856 49.2107 35.6569 49.4347 35.9276 49.752C36.2076 50.06 36.3476 50.438 36.3476 50.886C36.3476 51.334 36.2309 51.7307 35.9976 52.076C35.7643 52.412 35.4283 52.6733 34.9896 52.86C34.5509 53.0467 34.0283 53.14 33.4216 53.14ZM41.1821 45.86C41.7421 45.86 42.2181 45.944 42.6101 46.112C43.0114 46.2707 43.3474 46.4993 43.6181 46.798C43.8888 47.0967 44.0941 47.4373 44.2341 47.82L42.8201 48.38C42.6988 47.9507 42.5028 47.624 42.2321 47.4C41.9708 47.1667 41.6254 47.05 41.1961 47.05C40.7761 47.05 40.4168 47.148 40.1181 47.344C39.8194 47.5307 39.5908 47.806 39.4321 48.17C39.2828 48.534 39.2081 48.982 39.2081 49.514C39.2081 50.0367 39.2874 50.48 39.4461 50.844C39.6048 51.208 39.8334 51.4833 40.1321 51.67C40.4308 51.8567 40.7854 51.95 41.1961 51.95C41.5134 51.95 41.7888 51.8987 42.0221 51.796C42.2554 51.684 42.4468 51.53 42.5961 51.334C42.7548 51.1287 42.8621 50.8813 42.9181 50.592L44.2761 51.054C44.1454 51.474 43.9401 51.8427 43.6601 52.16C43.3894 52.468 43.0488 52.7107 42.6381 52.888C42.2274 53.056 41.7561 53.14 41.2241 53.14C40.5334 53.14 39.9221 52.9953 39.3901 52.706C38.8581 52.4167 38.4428 52.0013 38.1441 51.46C37.8548 50.9093 37.7101 50.256 37.7101 49.5C37.7101 48.744 37.8548 48.0953 38.1441 47.554C38.4428 47.0033 38.8534 46.5833 39.3761 46.294C39.9081 46.0047 40.5101 45.86 41.1821 45.86ZM46.0194 53V46H47.2934L47.4334 47.26C47.6201 46.8027 47.8954 46.4573 48.2594 46.224C48.6328 45.9813 49.0901 45.86 49.6314 45.86C49.7714 45.86 49.9114 45.874 50.0514 45.902C50.1914 45.9207 50.3081 45.9533 50.4014 46L50.1914 47.316C50.0888 47.2787 49.9721 47.2507 49.8414 47.232C49.7201 47.204 49.5521 47.19 49.3374 47.19C49.0481 47.19 48.7634 47.2693 48.4834 47.428C48.2034 47.5773 47.9701 47.806 47.7834 48.114C47.6061 48.422 47.5174 48.814 47.5174 49.29V53H46.0194ZM54.7186 53.14C54.0186 53.14 53.4026 52.9953 52.8706 52.706C52.3386 52.4167 51.9232 52.0013 51.6246 51.46C51.3352 50.9093 51.1906 50.256 51.1906 49.5C51.1906 48.744 51.3352 48.0953 51.6246 47.554C51.9232 47.0033 52.3339 46.5833 52.8566 46.294C53.3792 46.0047 53.9719 45.86 54.6346 45.86C55.3159 45.86 55.8946 46 56.3706 46.28C56.8466 46.56 57.2106 46.9427 57.4626 47.428C57.7146 47.9133 57.8406 48.464 57.8406 49.08C57.8406 49.248 57.8359 49.4067 57.8266 49.556C57.8172 49.7053 57.8032 49.836 57.7846 49.948H52.1566V48.8H57.1266L56.3846 49.024C56.3846 48.3893 56.2259 47.904 55.9086 47.568C55.5912 47.2227 55.1572 47.05 54.6066 47.05C54.2052 47.05 53.8552 47.1433 53.5566 47.33C53.2579 47.5167 53.0292 47.7967 52.8706 48.17C52.7119 48.534 52.6326 48.982 52.6326 49.514C52.6326 50.0367 52.7166 50.48 52.8846 50.844C53.0526 51.208 53.2906 51.4833 53.5986 51.67C53.9066 51.8567 54.2706 51.95 54.6906 51.95C55.1572 51.95 55.5352 51.8613 55.8246 51.684C56.1139 51.5067 56.3426 51.2593 56.5106 50.942L57.7006 51.502C57.5326 51.838 57.3039 52.132 57.0146 52.384C56.7346 52.6267 56.3986 52.8133 56.0066 52.944C55.6146 53.0747 55.1852 53.14 54.7186 53.14ZM62.8123 53.14C62.1123 53.14 61.4963 52.9953 60.9643 52.706C60.4323 52.4167 60.017 52.0013 59.7183 51.46C59.429 50.9093 59.2843 50.256 59.2843 49.5C59.2843 48.744 59.429 48.0953 59.7183 47.554C60.017 47.0033 60.4276 46.5833 60.9503 46.294C61.473 46.0047 62.0656 45.86 62.7283 45.86C63.4096 45.86 63.9883 46 64.4643 46.28C64.9403 46.56 65.3043 46.9427 65.5563 47.428C65.8083 47.9133 65.9343 48.464 65.9343 49.08C65.9343 49.248 65.9296 49.4067 65.9203 49.556C65.911 49.7053 65.897 49.836 65.8783 49.948H60.2503V48.8H65.2203L64.4783 49.024C64.4783 48.3893 64.3196 47.904 64.0023 47.568C63.685 47.2227 63.251 47.05 62.7003 47.05C62.299 47.05 61.949 47.1433 61.6503 47.33C61.3516 47.5167 61.123 47.7967 60.9643 48.17C60.8056 48.534 60.7263 48.982 60.7263 49.514C60.7263 50.0367 60.8103 50.48 60.9783 50.844C61.1463 51.208 61.3843 51.4833 61.6923 51.67C62.0003 51.8567 62.3643 51.95 62.7843 51.95C63.251 51.95 63.629 51.8613 63.9183 51.684C64.2076 51.5067 64.4363 51.2593 64.6043 50.942L65.7943 51.502C65.6263 51.838 65.3976 52.132 65.1083 52.384C64.8283 52.6267 64.4923 52.8133 64.1003 52.944C63.7083 53.0747 63.279 53.14 62.8123 53.14ZM67.8261 53V46H69.1561L69.2541 47.82L69.0581 47.624C69.1887 47.2227 69.3754 46.8913 69.6181 46.63C69.8701 46.3593 70.1641 46.1633 70.5001 46.042C70.8454 45.9207 71.2094 45.86 71.5921 45.86C72.0867 45.86 72.5301 45.958 72.9221 46.154C73.3234 46.3407 73.6407 46.6253 73.8741 47.008C74.1074 47.3907 74.2241 47.876 74.2241 48.464V53H72.7261V48.926C72.7261 48.2353 72.5814 47.7593 72.2921 47.498C72.0121 47.2273 71.6574 47.092 71.2281 47.092C70.9201 47.092 70.6214 47.1667 70.3321 47.316C70.0427 47.456 69.8001 47.6847 69.6041 48.002C69.4174 48.3193 69.3241 48.744 69.3241 49.276V53H67.8261Z" fill="#928FAB"/>
</svg>
